<svg width="26" height="31" viewBox="0 0 26 31" fill="none" xmlns="http://www.w3.org/2000/svg">
<path d="M8.86652 16.8769H17.1298M8.86652 22.3857H12.9982M1.98047 4.48196V26.5173C1.98047 27.2479 2.27067 27.9484 2.78722 28.465C3.30377 28.9816 4.00437 29.2718 4.73489 29.2718H21.2614C21.9919 29.2718 22.6925 28.9816 23.2091 28.465C23.7256 27.9484 24.0158 27.2479 24.0158 26.5173V10.4618C24.0158 10.0949 23.9424 9.73163 23.8001 9.39343C23.6577 9.05523 23.4492 8.74889 23.1868 8.4924L17.0719 2.51255C16.5574 2.0094 15.8663 1.72763 15.1466 1.72754H4.73489C4.00437 1.72754 3.30377 2.01774 2.78722 2.53429C2.27067 3.05084 1.98047 3.75144 1.98047 4.48196Z" stroke="#201B10" stroke-width="2" stroke-linecap="round" stroke-linejoin="round"/>
<path d="M15.7539 1.72754V7.23638C15.7539 7.9669 16.0441 8.6675 16.5607 9.18405C17.0772 9.70061 17.7778 9.9908 18.5083 9.9908H24.0172" stroke="#201B10" stroke-width="2" stroke-linejoin="round"/>
</svg>
