<svg width="35" height="35" viewBox="0 0 35 35" fill="none" xmlns="http://www.w3.org/2000/svg">
<path d="M17.5 10.9961V17.4993L21.5645 21.5639" stroke="#201B10" stroke-width="2.43872" stroke-linecap="round" stroke-linejoin="round"/>
<path d="M8.08203 27.9795C13.485 32.8536 21.6737 32.8929 27.0234 28.083L27.6875 28.7471C21.9659 33.9294 13.1829 33.8779 7.41797 28.6426L8.08203 27.9795ZM28.6436 7.41699C33.8786 13.1817 33.9288 21.9648 28.748 27.6865L28.084 27.0225C32.8938 21.6725 32.855 13.4829 27.9805 8.08008L28.6436 7.41699ZM3.38672 16.168C3.22433 18.1107 3.46116 20.069 4.08691 21.9209C4.71248 23.7723 5.71171 25.4722 7.01855 26.918L6.35547 27.5811C4.94623 26.0319 3.86914 24.207 3.19727 22.2178C2.52563 20.2292 2.27506 18.1257 2.45605 16.04L3.38672 16.168ZM8.43457 8.70801L8.42969 9.64648L7.3457 9.6416L8.2793 8.70703L8.43457 8.70801ZM7.31445 6.25293C13.0356 1.07128 21.8181 1.12241 27.583 6.35645L26.9199 7.01953C21.517 2.14624 13.327 2.10651 7.97754 6.91602L7.31445 6.25293ZM5.49609 5.92188L4.5625 6.85547L4.55664 5.77441L5.49512 5.76855L5.49609 5.92188Z" stroke="#201B10" stroke-width="1.5"/>
</svg>
