<svg width="41" height="41" viewBox="0 0 41 41" fill="none" xmlns="http://www.w3.org/2000/svg">
<path d="M20.3438 4.41211C17.1298 4.41211 13.988 5.36516 11.3157 7.15073C8.64344 8.9363 6.56064 11.4742 5.33071 14.4435C4.10079 17.4128 3.77899 20.6801 4.406 23.8323C5.03301 26.9845 6.58067 29.88 8.85327 32.1526C11.1259 34.4252 14.0213 35.9729 17.1735 36.5999C20.3257 37.2269 23.5931 36.9051 26.5624 35.6752C29.5317 34.4452 32.0696 32.3624 33.8551 29.6901C35.6407 27.0178 36.5938 23.8761 36.5938 20.6621C36.5892 16.3537 34.8757 12.2231 31.8292 9.17665C28.7827 6.13017 24.6521 4.41666 20.3438 4.41211ZM20.3438 34.4121C17.6243 34.4121 14.9658 33.6057 12.7047 32.0948C10.4435 30.5839 8.68112 28.4365 7.64041 25.924C6.59971 23.4115 6.32741 20.6469 6.85796 17.9796C7.38851 15.3124 8.69807 12.8624 10.621 10.9394C12.544 9.01642 14.994 7.70686 17.6613 7.17631C20.3285 6.64576 23.0932 6.91806 25.6057 7.95877C28.1181 8.99947 30.2656 10.7618 31.7765 13.023C33.2873 15.2842 34.0938 17.9426 34.0938 20.6621C34.0896 24.3076 32.6396 27.8025 30.0619 30.3803C27.4842 32.958 23.9892 34.408 20.3438 34.4121ZM12.8438 17.5371C12.8438 17.1663 12.9537 16.8038 13.1598 16.4954C13.3658 16.1871 13.6586 15.9467 14.0012 15.8048C14.3438 15.6629 14.7208 15.6258 15.0846 15.6981C15.4483 15.7705 15.7824 15.9491 16.0446 16.2113C16.3068 16.4735 16.4854 16.8076 16.5577 17.1713C16.6301 17.535 16.5929 17.912 16.451 18.2546C16.3091 18.5973 16.0688 18.8901 15.7605 19.0961C15.4521 19.3021 15.0896 19.4121 14.7188 19.4121C14.2215 19.4121 13.7446 19.2146 13.3929 18.8629C13.0413 18.5113 12.8438 18.0344 12.8438 17.5371ZM27.8438 17.5371C27.8438 17.9079 27.7338 18.2705 27.5278 18.5788C27.3217 18.8871 27.0289 19.1275 26.6863 19.2694C26.3437 19.4113 25.9667 19.4484 25.603 19.3761C25.2392 19.3037 24.9052 19.1252 24.6429 18.8629C24.3807 18.6007 24.2021 18.2666 24.1298 17.9029C24.0574 17.5392 24.0946 17.1622 24.2365 16.8196C24.3784 16.477 24.6187 16.1841 24.9271 15.9781C25.2354 15.7721 25.5979 15.6621 25.9688 15.6621C26.466 15.6621 26.9429 15.8597 27.2946 16.2113C27.6462 16.5629 27.8438 17.0398 27.8438 17.5371Z" fill="#201B10"/>
<path d="M27.1713 23.5301C27.8432 23.7803 28.1933 24.5344 27.8443 25.1607C27.2069 26.3047 26.312 27.2923 25.2238 28.0414C23.7773 29.037 22.0593 29.5631 20.3033 29.548C18.5474 29.5329 16.8386 28.9775 15.4095 27.9571C14.3342 27.1894 13.4565 26.1866 12.8388 25.0319C12.5006 24.3997 12.8636 23.6517 13.5397 23.413V23.413C14.2158 23.1744 14.9462 23.5401 15.3255 24.1485C15.7375 24.8094 16.2774 25.3867 16.9181 25.8441C17.9132 26.5545 19.103 26.9413 20.3256 26.9518C21.5483 26.9623 22.7445 26.596 23.7516 25.9027C24.4001 25.4564 24.9499 24.8885 25.3731 24.2348C25.7628 23.6329 26.4994 23.2799 27.1713 23.5301V23.5301Z" fill="#201B10"/>
</svg>
