<svg width="60" height="60" viewBox="0 0 60 60" fill="none" xmlns="http://www.w3.org/2000/svg">
<path fill-rule="evenodd" clip-rule="evenodd" d="M30 10C24.6957 10 19.6086 12.1071 15.8579 15.8579C12.1071 19.6086 10 24.6957 10 30C10 35.3043 12.1071 40.3914 15.8579 44.1421C19.6086 47.8929 24.6957 50 30 50C35.3043 50 40.3914 47.8929 44.1421 44.1421C47.8929 40.3914 50 35.3043 50 30C50 24.6957 47.8929 19.6086 44.1421 15.8579C40.3914 12.1071 35.3043 10 30 10ZM5 30C5 16.1925 16.1925 5 30 5C43.8075 5 55 16.1925 55 30C55 43.8075 43.8075 55 30 55C16.1925 55 5 43.8075 5 30Z" fill="white"/>
<path fill-rule="evenodd" clip-rule="evenodd" d="M30.0002 10C24.8438 9.98966 19.8847 11.9812 16.1677 15.555C15.9306 15.7822 15.6512 15.9605 15.3453 16.0797C15.0393 16.1989 14.7129 16.2566 14.3847 16.2497C14.0564 16.2427 13.7327 16.1711 13.4321 16.0391C13.1315 15.907 12.8599 15.7171 12.6327 15.48C12.4055 15.243 12.2272 14.9635 12.108 14.6576C11.9889 14.3517 11.9311 14.0253 11.9381 13.697C11.945 13.3687 12.0166 13.0451 12.1486 12.7445C12.2807 12.4439 12.4707 12.1722 12.7077 11.945C17.3557 7.47906 23.5544 4.98953 30.0002 5.00003C30.6632 5.00003 31.2991 5.26343 31.768 5.73227C32.2368 6.20111 32.5002 6.83699 32.5002 7.50003C32.5002 8.16307 32.2368 8.79896 31.768 9.2678C31.2991 9.73664 30.6632 10 30.0002 10Z" fill="#2AE881"/>
</svg>
