<svg width="35" height="35" viewBox="0 0 35 35" fill="none" xmlns="http://www.w3.org/2000/svg">
<path d="M17.5 4.68359V22.2215" stroke="#201B10" stroke-width="2.5" stroke-miterlimit="10" stroke-linecap="round"/>
<path d="M24.2422 10.8722L18.4599 5.08842C18.2041 4.83532 17.8587 4.69336 17.4989 4.69336C17.139 4.69336 16.7936 4.83532 16.5378 5.08842L10.7526 10.8722M4.00782 20.1968V26.9416C4.00724 27.3847 4.0941 27.8236 4.26341 28.2331C4.43272 28.6426 4.68116 29.0147 4.9945 29.328C5.30783 29.6413 5.67991 29.8898 6.08942 30.0591C6.49893 30.2284 6.93781 30.3153 7.38094 30.3147H27.6153C28.0583 30.3151 28.4971 30.2281 28.9064 30.0587C29.3157 29.8893 29.6876 29.6408 30.0008 29.3275C30.314 29.0142 30.5623 28.6421 30.7315 28.2327C30.9008 27.8233 30.9876 27.3846 30.987 26.9416V20.1968" stroke="#201B10" stroke-width="2.5" stroke-linecap="round" stroke-linejoin="round"/>
</svg>
