<svg width="260" height="54" viewBox="0 0 260 54" fill="none" xmlns="http://www.w3.org/2000/svg">
<path d="M157.371 33.5232L163.988 23.5H157.784L150.946 33.856V23.5H145.473V44.7841H150.946V34.7781H153.135L157.784 44.7841H163.988L158.756 33.5232H157.371Z" fill="#FF5F00"/>
<path d="M142.391 23.5H136.918V41.4369H133.72V23.5H128.247V41.4369H125.049V23.5H119.576V41.4369H119.57L119.576 41.6039V44.7841H119.693H125.049H128.247H133.72H136.918H142.391H142.513L142.391 41.4369V23.5Z" fill="#FF5F00"/>
<path d="M195.188 23.5H192.452H191.592H188.966H187.048L182.184 44.7841H188.388L191.766 27.0928H192.278L195.656 44.7841H201.861L196.997 23.5H195.188Z" fill="#FF5F00"/>
<path d="M227.386 23.4993H218.47L208.637 30.7831V23.4993H203.164V44.7834H208.637V41.6216C209.868 43.9767 212.231 45.46 214.947 45.46C218.931 45.46 222.166 42.0329 222.166 37.8115C222.166 34.161 219.753 31.1097 216.53 30.3435L221.687 27.0921H223.519V44.7822H228.992V23.498H227.387L227.386 23.4993ZM217.805 37.3928C217.805 39.2997 216.347 40.8443 214.558 40.8443C212.769 40.8443 211.311 39.2997 211.311 37.3928C211.311 35.4859 212.769 33.9473 214.558 33.9473C216.347 33.9473 217.805 35.492 217.805 37.3928Z" fill="#FF5F00"/>
<path d="M172.479 22.791C166.71 22.791 162.031 27.7566 162.031 33.8727C162.031 39.9887 166.711 44.942 172.479 44.942C178.246 44.942 182.926 39.9826 182.926 33.8727C182.926 27.7627 178.24 22.791 172.479 22.791ZM172.479 38.9929C169.81 38.9929 167.645 36.698 167.645 33.8677C167.645 31.0375 169.81 28.7426 172.479 28.7426C175.148 28.7426 177.312 31.0375 177.312 33.8677C177.312 36.698 175.148 38.9929 172.479 38.9929Z" fill="#FF5F00"/>
<path d="M119.834 27.2749C114.908 35.336 106.256 42.9476 102.554 42.9476C101.248 42.9476 100.631 42.0206 100.516 40.5373C106.235 38.8256 113.087 28.7754 113.087 21.5714C113.087 18.821 112.079 16.957 109.975 16.957C104.662 16.957 97.0859 32.2417 97.0859 40.3273C97.0859 44.1546 98.383 46.8989 101.624 46.8989C106.795 46.8989 114.654 41.5147 122.974 29.4114L119.831 27.2762L119.834 27.2749ZM110.234 19.9408L110.536 20.5068C110.069 20.858 109.731 21.1466 109.313 21.6021C109.313 26.7383 105.088 34.1437 101.027 36.403C102.567 30.3078 107.121 21.8772 110.234 19.9408Z" fill="#CB81FF"/>
<path d="M93.9717 24.4751C93.1937 26.1843 88.1062 35.1577 84.7599 39.0685C86.1538 33.5491 88.7209 26.3231 89.9431 22.8506L85.8041 22.6971L81.2111 37.1886C80.6638 38.9174 79.2428 44.2035 83.2223 44.1973C87.0349 44.1912 94.0023 32.2292 95.0294 28.753L95.8909 28.882C94.9067 31.528 92.8464 35.5518 91.6537 36.8202L89.9443 44.869H93.9042L98.5659 25.2953C99.3157 22.1384 95.9093 20.2131 93.9729 24.4763L93.9717 24.4751Z" fill="#CB81FF"/>
<path d="M79.1497 22.6731L76.9605 30.5303C75.6463 31.7791 73.7885 32.7786 72.3688 33.1862L75.288 22.6719H71.4141L65.3203 44.8671H69.1942L71.1367 37.199C73.5284 36.7839 75.866 35.7095 77.9263 33.2624L78.3018 34.0433C77.1152 35.5634 75.9592 36.2093 75.0733 36.6464L72.9516 44.8671H76.8931L83.0298 22.6719H79.1497V22.6731Z" fill="#CB81FF"/>
<path d="M65.8936 22.556C64.9892 22.556 63.9253 23.0545 62.3951 25.3433L56.9186 33.5271L58.9384 28.0569C59.9655 25.2819 59.1163 23.8232 57.5738 23.8232C56.3627 23.8232 54.7086 24.8448 52.9931 27.2932L47.3362 35.3542H45.8747C48.459 31.4852 50.6101 27.1544 52.2863 23.8354L48.1227 23.8661C47.1447 25.8111 38.4741 41.3475 33.8811 41.3475C33.1178 41.3475 32.5668 41.0516 32.1987 40.5297C38.5084 35.3223 44.6476 25.315 44.6476 20.0879C44.6476 18.0386 43.7003 16.7223 41.4498 16.7223C35.5033 16.7223 28.2843 28.9299 28.2843 37.2685C28.2843 37.7805 28.3088 38.2889 28.3567 38.7861C27.3382 39.5069 26.4645 39.9207 25.8546 39.9207C25.2828 39.9207 24.9503 39.502 24.9503 38.5357C24.9503 33.047 33.5964 11.6217 38.5894 0.287109H33.8418C21.5021 18.9558 11.2755 35.6563 0.335938 53.9677H5.14493C8.2323 48.6141 24.8656 18.8944 28.8819 13.811H29.7188C28.5137 15.5644 27.8376 16.6474 27.1112 17.9342C24.3134 26.1119 21.1279 34.5536 21.1279 38.9409C21.1279 41.8755 22.5611 43.8634 25.0877 43.8634C26.4277 43.8634 27.8928 43.3612 29.4009 42.4968C30.1949 43.9285 31.4477 44.8666 33.2786 44.8666C36.9279 44.8666 40.1994 42.4698 43.0561 39.1189H44.1813L40.3135 44.8666H44.8206C47.2932 41.4519 51.2101 35.0644 56.2216 28.8624L56.818 29.4285L54.0631 33.1821L50.4959 43.2863H54.1183C57.7223 38.2901 60.8576 33.3245 64.5536 28.3712L65.1683 28.8759L62.0135 33.6511L59.0194 44.8691H62.8688L67.8986 26.3784C68.5686 23.9239 67.4495 22.5572 65.8936 22.5572V22.556ZM41.6093 19.6336L42.1811 20.1874C41.5602 20.5079 40.9577 20.9069 40.3491 21.3932C39.5981 25.9744 35.6027 31.7921 31.8662 35.6735C32.9828 29.8287 37.5525 21.3379 41.6093 19.6324V19.6336Z" fill="#CB81FF"/>
<path d="M81.2358 14.9018L80.0983 11.0684L53.3672 18.6063L54.7575 22.624L81.2358 14.9018Z" fill="#CB81FF"/>
<path d="M24.2177 17.2068C24.0239 17.2068 23.8263 17.1528 23.652 17.0386C23.1686 16.7255 23.0299 16.0796 23.344 15.5958C24.7172 13.4753 29.0316 6.87661 30.8625 4.08072C31.1778 3.59939 31.8245 3.46432 32.3068 3.77989C32.789 4.09545 32.9228 4.74255 32.6074 5.22511C30.7766 8.01854 26.4658 14.6123 25.0951 16.7304C24.8951 17.0386 24.5601 17.2068 24.219 17.2068H24.2177Z" fill="#FCE300"/>
<path d="M30.224 31.7802C30.1197 31.7802 30.0129 31.7643 29.9074 31.7311C29.3589 31.5568 29.0545 30.9698 29.2288 30.421C30.0743 27.7601 33.6046 20.8533 34.5262 19.3184C34.8231 18.8248 35.4637 18.6652 35.957 18.9611C36.4502 19.2583 36.611 19.8992 36.314 20.3928C35.3238 22.0419 31.9677 28.6872 31.2167 31.0521C31.0756 31.4966 30.6657 31.7802 30.2227 31.7802H30.224Z" fill="#FCE300"/>
<path d="M42.5587 35.3003C42.4335 35.3003 42.3047 35.2769 42.1808 35.229C41.6433 35.0203 41.3782 34.415 41.5868 33.8784C42.2065 32.2858 45.5896 26.7517 46.6474 25.126C46.9615 24.6435 47.6082 24.5072 48.0905 24.8215C48.5727 25.1359 48.7089 25.7829 48.3948 26.2655C47.202 28.0975 44.03 33.3492 43.5306 34.6348C43.3698 35.0473 42.9759 35.3003 42.5587 35.3003Z" fill="#FCE300"/>
<path d="M64.0353 16.9933C63.5838 16.9933 63.1678 16.6974 63.034 16.2418C62.8733 15.6881 63.1899 15.1085 63.7433 14.9476L76.056 11.3524C76.6094 11.1915 77.1886 11.5083 77.3493 12.0621C77.5101 12.6159 77.1935 13.1955 76.6401 13.3563L64.3274 16.9515C64.2304 16.9798 64.131 16.9933 64.0353 16.9933Z" fill="#FCE300"/>
<path d="M67.6772 38.4999C67.5802 38.4999 67.4821 38.4864 67.3839 38.4582C66.8305 38.2961 66.5139 37.7166 66.6746 37.164L69.3129 28.1231C69.4749 27.5693 70.0528 27.2513 70.6063 27.4134C71.1597 27.5755 71.4763 28.155 71.3155 28.7076L68.6773 37.7485C68.5447 38.204 68.1275 38.4999 67.676 38.4999H67.6772Z" fill="#FCE300"/>
<path d="M88.0658 36.254C87.8179 36.254 87.5701 36.1668 87.3713 35.9875C86.9418 35.6032 86.905 34.9438 87.289 34.5141C89.785 31.7219 92.3717 26.5242 93.2221 24.8163L93.3386 24.583C93.5963 24.0672 94.2221 23.8585 94.7375 24.1164C95.2529 24.3742 95.4615 25.0017 95.2038 25.5162L95.0885 25.747C94.2074 27.5176 91.5262 32.9055 88.8426 35.9065C88.6364 36.1373 88.3517 36.254 88.0646 36.254H88.0658Z" fill="#FCE300"/>
<path d="M105.933 31.42C105.701 31.42 105.468 31.3439 105.275 31.1855C104.828 30.822 104.761 30.1639 105.125 29.7169C106.154 28.4534 107.56 25.3862 107.901 24.27C108.069 23.7187 108.653 23.4081 109.203 23.5775C109.754 23.7457 110.064 24.329 109.895 24.8803C109.501 26.1671 108.007 29.4824 106.743 31.0344C106.537 31.2874 106.236 31.4188 105.933 31.4188V31.42Z" fill="#FCE300"/>
<path d="M104.098 43.4122C103.67 43.4122 103.267 43.1458 103.115 42.7185C102.923 42.1757 103.205 41.579 103.748 41.385C105.639 40.7121 108.287 38.7708 111.207 35.9209C113.695 33.4909 115.789 30.9639 116.494 29.8195C116.797 29.3296 117.439 29.1774 117.93 29.4794C118.42 29.7827 118.572 30.4249 118.27 30.916C116.791 33.3129 109.534 41.5409 104.448 43.352C104.332 43.3926 104.215 43.4122 104.098 43.4122Z" fill="#FCE300"/>
<path d="M246.192 30.51C253.635 30.51 259.668 24.4763 259.668 17.0333C259.668 9.59037 253.635 3.55664 246.192 3.55664C238.749 3.55664 232.715 9.59037 232.715 17.0333C232.715 24.4763 238.749 30.51 246.192 30.51Z" fill="black"/>
<path d="M245.57 16.9382H243.961C243.961 18.037 243.682 19.2753 243.156 20.111C241.949 19.3991 240.974 18.3312 240.169 17.3407C241.918 16.8146 244.038 15.9168 244.038 13.6881C244.038 11.9854 242.831 10.6699 240.726 10.6699C238.466 10.6699 237.274 12.2485 237.274 13.92C237.274 14.8178 237.522 15.7616 238.048 16.7832C236.779 17.4797 236.16 18.5476 236.16 19.7394C236.16 21.7668 238.048 23.0515 240.323 23.0515C241.376 23.0515 242.444 22.6337 243.388 21.8288C244.58 22.5099 245.911 22.8504 247.257 22.8504V21.504C246.468 21.4731 245.168 21.241 244.456 20.7921C245.183 19.6624 245.539 18.2539 245.57 16.9384L245.57 16.9382ZM240.685 12.0166C241.796 12.0193 242.444 12.869 242.444 13.6878C242.444 14.9104 240.974 15.6378 239.457 16.2105C239.055 15.4057 238.869 14.6937 238.869 13.9663C238.869 13.025 239.484 12.0221 240.685 12.0163V12.0166ZM240.323 21.705C238.977 21.705 237.754 21.1015 237.754 19.7396C237.754 19.1669 237.955 18.3932 238.745 17.898C239.611 19.0897 240.772 20.1885 242.103 21.0863C241.623 21.4731 241.066 21.7053 240.323 21.7053L240.323 21.705Z" fill="#F3F4F4"/>
<path d="M251.602 10.6699C250.549 10.6699 249.482 11.0877 248.537 11.8925C247.346 11.2115 246.015 10.8709 244.668 10.8709V12.2174C245.458 12.2483 246.758 12.4804 247.47 12.9293C246.742 14.059 246.386 15.4674 246.355 16.783H247.965C247.965 15.6842 248.244 14.4459 248.77 13.6101C249.977 14.3221 250.952 15.39 251.757 16.3804C250.008 16.9065 247.888 17.8043 247.888 20.033C247.888 21.7354 249.095 23.051 251.2 23.051C253.46 23.051 254.651 21.4724 254.651 19.8009C254.651 18.9031 254.404 17.9592 253.878 16.9377C255.147 16.2412 255.766 15.1733 255.766 13.9815C255.765 11.9546 253.877 10.6699 251.602 10.6699ZM251.241 21.7048C250.129 21.7021 249.482 20.8524 249.482 20.0335C249.482 18.8109 250.952 18.0835 252.469 17.5109C252.871 18.3157 253.057 19.0277 253.057 19.755C253.057 20.6964 252.441 21.6993 251.241 21.705V21.7048ZM253.181 15.8237C252.314 14.6319 251.153 13.5331 249.822 12.6354C250.302 12.2485 250.859 12.0163 251.602 12.0163C252.948 12.0163 254.171 12.6199 254.171 13.9818C254.171 14.5545 253.97 15.3282 253.181 15.8234L253.181 15.8237Z" fill="#F3F4F4"/>
</svg>
